<svg width="128" height="112" viewBox="0 0 128 112" fill="none" xmlns="http://www.w3.org/2000/svg">
<path fill-rule="evenodd" clip-rule="evenodd" d="M67.5878 66.0184L85.0939 53.9134V25.6267H83.88L67.587 35.9728C66.0947 36.9194 62.6871 36.9306 61.1948 35.9728L44.9018 25.6267H43.688V53.9134L61.1941 66.0184C62.6084 66.9873 66.1609 66.9985 67.5863 66.0184H67.5878Z" fill="#1A181C"/>
<path fill-rule="evenodd" clip-rule="evenodd" d="M60.3143 64.482V36.3044L44.6021 26.5425V53.5811L60.3143 64.482ZM67.3295 37.0069C65.9989 37.8266 62.5923 37.7734 61.2192 36.9004V65.078C62.5605 66.0042 65.9669 66.1318 67.3295 65.1951V37.0063V37.0069ZM68.2343 64.5884L84.181 53.5811V26.5425L68.2343 36.4423V64.5884Z" fill="#FEFEFE"/>
<path d="M61.9536 35.551L47.9106 25.6288V27.8445" stroke="#1A181C" stroke-width="0.814439"/>
<path d="M62.7556 35.3397L51.6973 25.6288V28.4014" stroke="#1A171C" stroke-width="0.814439"/>
<path d="M63.4459 35.206L54.8481 25.6288V28.435" stroke="#1A171C" stroke-width="0.814439"/>
<path d="M64.2806 35.206L57.187 25.6288V28.3014" stroke="#1B181C" stroke-width="0.814439"/>
<path d="M66.6084 35.551L80.6535 25.6288V27.8445" stroke="#1B181C" stroke-width="0.814439"/>
<path d="M65.8066 35.3397L76.8615 25.6288V28.4014" stroke="#1A181C" stroke-width="0.814439"/>
<path d="M65.1162 35.206L73.7133 25.6288V28.435" stroke="#1B181C" stroke-width="0.814439"/>
<path d="M64.2808 35.206L71.3764 25.6288V28.3014" stroke="#1A171C" stroke-width="0.814439"/>
<path d="M60.8159 36.2576C63.1546 34.7765 65.4821 34.8322 67.843 36.2576" stroke="#1A171C" stroke-width="0.814439"/>
<path fill-rule="evenodd" clip-rule="evenodd" d="M26.1743 101.929C24.8667 99.5312 23.7972 97.4098 25.5216 92.3658C25.7823 92.9775 25.8804 94.2828 26.7474 94.2762C26.8493 92.4759 27.3614 91.3042 27.9177 90.2303C27.9454 91.8908 27.8218 95.151 28.8154 95.9843C29.1533 92.1555 29.6605 88.373 31.2308 84.7496C43.6688 74.7869 56.7819 67.2624 70.1099 60.3906C69.969 62.2597 70.1413 64.0252 70.5511 65.6851C70.6804 62.8462 71.3421 60.5328 72.6443 58.8428C79.8155 57.5383 86.625 56.4549 93.2945 55.4967C92.6986 57.6703 92.4698 59.662 92.2727 61.6217C93.5432 58.7415 95.1211 56.4949 97.2203 55.3447C105.038 55.0847 112.591 56.1602 120.054 57.8162C111.52 64.8475 103.547 72.0655 92.9687 78.6791C90.0727 79.4807 87.6161 78.1922 85.235 76.5877C86.4254 79.1914 87.8547 81.2313 89.9086 81.9817C77.7868 90.543 58.0601 96.4906 41.0535 103.36C38.3682 102.841 35.3307 102.621 33.7815 100.799C32.9877 103.201 36.4107 103.917 39.2781 104.867C36.791 104.247 34.2674 103.811 31.9698 102.49C32.6246 105.485 36.2102 106.729 38.9249 108.514C35.5103 107.049 31.2087 105.433 30.1586 104.181C30.3022 104.999 30.9702 105.933 32.0131 106.967C29.9482 105.565 27.7558 104.1 26.1743 101.928L26.1743 101.929Z" fill="#FEFEFE" stroke="#1A171C" stroke-width="1.20091"/>
<path fill-rule="evenodd" clip-rule="evenodd" d="M11.5366 109.415C45.1629 88.1155 79.5189 67.9536 113.794 58.6863C83.7832 69.8293 52.6986 89.4161 21.8352 105.126L11.5394 109.415H11.5366Z" fill="#1A181C"/>
<path fill-rule="evenodd" clip-rule="evenodd" d="M64.4878 71.1943C48.8196 71.1943 36.0486 58.4233 36.0486 42.7551C36.0486 27.0869 48.8196 14.3151 64.4878 14.3151C80.156 14.3151 92.9271 27.0869 92.9271 42.7551C92.9271 58.4233 80.156 71.1943 64.4878 71.1943ZM64.4878 84.9581C60.4387 84.9581 28.2219 84.1419 6.85657 97.3297C9.24119 89.5519 17.9954 87.2151 14.1544 87.5188C8.66498 87.9509 6.98461 89.6314 1.68701 88.8631C14.1866 81.8692 25.4534 79.3726 39.2648 76.572C28.9579 68.8579 22.2841 56.5507 22.2841 42.7547C22.2841 19.5004 41.2329 0.551666 64.4871 0.551666C87.7414 0.551666 106.69 19.5004 106.69 42.7547C106.69 55.8301 100.689 67.5454 91.2942 75.3071C103.953 77.2276 121.478 80.7326 127.096 84.7339C123.175 87.9828 117.781 85.054 114.98 87.2465C117.925 88.863 117.765 90.4474 118.949 96.5292C109.331 90.0315 90.894 83.2139 64.4865 84.958L64.4878 84.9581Z" stroke="#FEFEFE" stroke-width="0.952475"/>
<path fill-rule="evenodd" clip-rule="evenodd" d="M64.4878 71.1943C48.8196 71.1943 36.0486 58.4233 36.0486 42.7551C36.0486 27.0869 48.8196 14.3151 64.4878 14.3151C80.1561 14.3151 92.9271 27.0869 92.9271 42.7551C92.9271 58.4233 80.1561 71.1943 64.4878 71.1943ZM64.4878 84.9581C60.4387 84.9581 28.2219 84.1419 6.85657 97.3297C9.24119 89.5519 17.9954 87.2151 14.1544 87.5188C8.66498 87.9509 6.98461 89.6314 1.68701 88.8631C14.1866 81.8692 25.4534 79.3726 39.2648 76.572C28.9579 68.8579 22.2841 56.5507 22.2841 42.7547C22.2841 19.5004 41.2329 0.551666 64.4871 0.551666C87.7414 0.551666 106.69 19.5004 106.69 42.7547C106.69 55.8301 100.689 67.5454 91.2942 75.3071C103.953 77.2276 121.478 80.7326 127.096 84.7339C123.175 87.9827 117.781 85.054 114.98 87.2465C117.925 88.863 117.765 90.4474 118.949 96.5292C109.331 90.0315 90.894 83.2139 64.4865 84.958L64.4878 84.9581Z" fill="#1A171C"/>
<path fill-rule="evenodd" clip-rule="evenodd" d="M41.2986 74.9653C48.5769 79.2362 59.1937 82.65 71.871 82.6647C94.744 82.8602 108.504 87.8679 116.685 93.3872C116.835 90.8308 115.256 89.0111 111.858 87.2516C114.926 83.8379 119.723 85.026 124.49 84.5748C117.873 82.0785 96.4135 78.1535 84.834 75.5069C80.7586 74.5745 74.4277 74.0632 63.7807 72.7549C48.9682 72.2437 34.2459 60.9347 34.2459 43.2047C34.2459 25.0388 48.3217 12.6169 64.8337 12.6169C81.3456 12.6169 94.6393 24.8884 94.6393 43.2047C94.6393 57.5058 85.6917 67.5063 74.548 71.206C80.7287 72.2586 85.917 73.9428 89.6313 74.5745C98.4586 67.2808 104.489 55.4914 104.489 43.2045C104.489 21.3537 86.6838 2.91702 64.8337 2.91702C42.9828 2.91702 24.0949 21.3537 24.0949 43.2045C24.0949 56.1672 31.4488 67.7321 41.2988 74.9649L41.2986 74.9653ZM40.4715 77.6421C30.2758 80.364 20.7111 81.3565 9.29736 86.6351C13.3877 86.6351 11.0569 86.3493 21.3583 85.6125C19.3131 88.5149 16.7115 87.3869 12.501 92.9208C27.5696 84.2741 47.3446 84.1838 57.8859 83.1008C52.0812 82.0781 47.3593 80.5894 40.4715 77.6419V77.6421Z" stroke="#FEFEFE" stroke-width="1.00768"/>
<path fill-rule="evenodd" clip-rule="evenodd" d="M41.2986 74.9653C48.5769 79.2362 59.1937 82.65 71.871 82.6647C94.744 82.8602 108.504 87.8679 116.685 93.3872C116.835 90.8308 115.256 89.0111 111.858 87.2516C114.926 83.8379 119.723 85.0259 124.49 84.5748C117.873 82.0785 96.4135 78.1535 84.834 75.5069C80.7586 74.5745 74.4277 74.0632 63.7807 72.7549C48.9682 72.2437 34.2459 60.9347 34.2459 43.2047C34.2459 25.0388 48.3217 12.6169 64.8337 12.6169C81.3456 12.6169 94.6393 24.8884 94.6393 43.2047C94.6393 57.5058 85.6917 67.5063 74.548 71.206C80.7287 72.2586 85.917 73.9428 89.6313 74.5745C98.4586 67.2808 104.489 55.4914 104.489 43.2045C104.489 21.3537 86.6838 2.91702 64.8337 2.91702C42.9828 2.91702 24.0949 21.3537 24.0949 43.2045C24.0949 56.1672 31.4487 67.7321 41.2988 74.9649L41.2986 74.9653ZM40.4715 77.6421C30.2758 80.364 20.7111 81.3565 9.29736 86.6351C13.3877 86.6351 11.0569 86.3493 21.3583 85.6124C19.3131 88.5149 16.7115 87.3869 12.501 92.9208C27.5696 84.2741 47.3446 84.1838 57.8859 83.1008C52.0812 82.0781 47.3593 80.5894 40.4715 77.6419V77.6421Z" fill="#FEFEFE"/>
</svg>
